<?xml version="1.0" encoding="UTF-8" standalone="no"?>
<!-- Created with Inkscape (http://www.inkscape.org/) -->

<svg
   width="100mm"
   height="100mm"
   viewBox="0 0 100 100"
   version="1.1"
   id="svg1"
   inkscape:version="1.4 (e7c3feb100, 2024-10-09)"
   sodipodi:docname="logo-aligned.svg"
   xmlns:inkscape="http://www.inkscape.org/namespaces/inkscape"
   xmlns:sodipodi="http://sodipodi.sourceforge.net/DTD/sodipodi-0.dtd"
   xmlns="http://www.w3.org/2000/svg"
   xmlns:svg="http://www.w3.org/2000/svg">
  <sodipodi:namedview
     id="namedview1"
     pagecolor="#c0c0c0"
     bordercolor="#000000"
     borderopacity="0.25"
     inkscape:showpageshadow="2"
     inkscape:pageopacity="0.0"
     inkscape:pagecheckerboard="0"
     inkscape:deskcolor="#d1d1d1"
     inkscape:document-units="mm"
     showgrid="true"
     inkscape:zoom="2"
     inkscape:cx="85.25"
     inkscape:cy="222.75"
     inkscape:window-width="2326"
     inkscape:window-height="1702"
     inkscape:window-x="768"
     inkscape:window-y="139"
     inkscape:window-maximized="0"
     inkscape:current-layer="layer1">
    <inkscape:grid
       id="grid1"
       units="mm"
       originx="0"
       originy="0"
       spacingx="0.99999999"
       spacingy="0.99999999"
       empcolor="#0099e5"
       empopacity="0.30196078"
       color="#0099e5"
       opacity="0.14901961"
       empspacing="5"
       enabled="true"
       visible="true" />
  </sodipodi:namedview>
  <defs
     id="defs1" />
  <g
     inkscape:groupmode="layer"
     id="layer2"
     inkscape:label="Layer 2" />
  <rect
     style="fill:#ffffff;fill-opacity:1;stroke:#000000;stroke-width:0;stroke-dasharray:none"
     id="rect1-1"
     width="14.857052"
     height="12.073613"
     x="25.468567"
     y="79.342705" />
  <rect
     style="fill:#ffffff;fill-opacity:1;stroke:#000000;stroke-width:0;stroke-dasharray:none"
     id="rect1-1-9"
     width="30.417374"
     height="37.001881"
     x="35.024895"
     y="49.345402" />
  <rect
     style="fill:#ffffff;fill-opacity:1;stroke:#000000;stroke-width:0;stroke-dasharray:none"
     id="rect1"
     width="29.570547"
     height="69.233978"
     x="64.816368"
     y="19.702942" />
  <g
     inkscape:label="Layer 1"
     inkscape:groupmode="layer"
     id="layer1">
    <g
       id="g18"
       transform="matrix(0.29939611,0,0,0.29939611,-8.6586981,-11.820419)">
      <path
         d="M 346.16744,105.26 H 312.72 c -1.2,1 -2.39,2.37 -3.56,4.12 21.97,26.01 35.23,59.6 35.23,96.28 0,82.45 -66.91,149.39 -149.37,149.39 -44.48,0 -84.6765,-19.79 -112.046495,-50.67 H 45.63 v 52.31 h 300.53744 z"
         id="path18"
         sodipodi:nodetypes="cccssccccc"
         style="display:inline" />
      <path
         d="m 136.45,304.38 c -7.24,-4.48 -13.58,-10.32 -19,-17.56 -1.25,0 -3.29,-5.33 -6.11,-15.99 -1.72,0 -2.9,-5.33 -3.53,-15.99 -5.96,-15.13 -10.03,-32.44 -12.23,-51.88 v -29.17 h -0.94 l -4.23,1.12 v -1.12 c 0,-1.31 1.41,-1.96 4.23,-1.96 L 93.7,155 v -13.18 l -6.42,-39.59 c -25.79,26.85 -41.65,63.3 -41.65,103.43 0,37.96 13.983505,72.36 37.343505,98.72 z M 97.23,248.93 v 0 h 1.65 l 2.82,10.94 h -1.88 l -2.59,-10.09 v -0.84 z M 79.78,189.77 c -2.35,6.17 -4.39,9.91 -6.11,11.22 h -1.88 v -4.21 l 7.05,-7.85 v 0 h 0.94 z"
         id="path13"
         sodipodi:nodetypes="ccccccccsccccscccccccccccccccccc"
         style="display:inline" />
      <path
         class="st0"
         d="m 245.4,105.26 v 0 53.94 l 2.98,-0.28 h 17.4 c 6.35,-22.74 12.22,-40.57 17.6,-53.66 z m 7.15,8.53 -1.65,2.24 h -0.94 v -1.12 l 1.65,-1.96 v 0 h 0.94 z m 6.1,28.04 -0.71,1.12 h -1.88 v -1.12 l 1.88,-1.96 v 0 l 0.71,1.12 z"
         id="path14"
         style="display:inline;fill:#ffbc00"
         sodipodi:nodetypes="ccccccccccccccccccccccc" />
      <path
         class="st0"
         d="m 245.4,204.01 h -20.08 c 0.02,0.29 0.04,0.61 0.04,0.91 4.86,11.03 9.25,18.32 13.16,21.87 h 2.82 c 3.29,0 7.68,-13.65 13.16,-40.94 0.94,0 3.53,-7.29 7.76,-21.87 v -1.12 l -14.81,-1.96 -2.05,0.65 z"
         id="path15"
         style="display:inline;fill:#ffbc00"
         sodipodi:nodetypes="ccccscccccc" />
      <path
         class="st0"
         d="m 309.16,109.38 c -3.4,5.06 -6.73,13.25 -9.97,24.6 -1.72,13.65 -4.62,26.27 -8.7,37.86 -3.61,11.96 -5.41,23 -5.41,33.09 l -6.82,19.91 c 0,1.68 2.59,3.36 7.76,5.05 -0.94,3.93 -2.35,5.89 -4.23,5.89 v 1.12 h 1.65 v 0.84 c 0,2.06 -2.66,3.08 -7.99,3.08 l 0.94,1.12 v 3.93 h -1.65 c 1.1,3.93 3.45,5.89 7.05,5.89 v 1.96 h -7.05 v 1.12 c 2.35,0 3.53,1.68 3.53,5.05 l -9.87,3.93 0.94,1.12 v 0.84 c 0,1.31 -1.18,1.96 -3.53,1.96 v 1.12 c 2.98,0 4.47,0.65 4.47,1.96 -4.23,1.68 -9.8,10 -16.7,24.95 -7.05,13.27 -13.16,19.91 -18.34,19.91 h -1.88 c -3.92,-2.99 -7.13,-12.9 -9.64,-29.72 -10.03,-25.61 -15.05,-40.65 -15.05,-45.14 0,-11.53 -3.18,-23.79 -9.54,-36.8 -0.04,-0.07 -0.07,-0.14 -0.1,-0.22 -1.59,-5.34 -2.71,-11.94 -3.37,-19.81 -0.1,-1.23 -0.97,-2.27 -2.17,-2.59 -1.31,-0.35 -2.69,0.25 -3.34,1.44 -4.22,7.77 -7.58,14.82 -10.09,21.18 -3.4,8.6 -5.23,15.92 -5.5,21.93 -2.98,6.36 -5.33,14.02 -7.05,23 6.43,2.06 9.64,4.02 9.64,5.89 v 1.12 c -5.02,-0.75 -8.54,-2.15 -10.58,-4.21 -2.19,5.05 -5.09,19.07 -8.7,42.06 -2.82,10.65 -6.35,15.99 -10.58,15.99 -3.82,-1.5 -7.43,-3.31 -10.84,-5.42 H 82.973505 C 110.34346,335.26 150.54,355.05 195.02,355.05 c 82.46,0 149.37,-66.93 149.37,-149.39 0,-36.69 -13.26,-70.28 -35.23,-96.28 z m -115.3,156.37 h -0.94 l -1.65,-2.8 v -1.12 0 h 0.71 l 2.82,3.08 z m 0.94,-28.04 -7.05,4.21 -0.94,-1.12 v -1.96 l 7.05,-3.08 v 0 h 0.94 v 1.96 z"
         id="path16"
         style="display:inline;fill:#ffbc00"
         sodipodi:nodetypes="cccccccccscccccccccccsccccsccsccccccccsccccccsscccccccccccccccccc" />
      <path
         d="m 195.01,56.3 c -17.65,0 -34.58,3.07 -50.3,8.7 h 7.06 v 1.96 c -3.92,0.19 -6.58,1.22 -7.99,3.08 -1.83,-1.26 -3.62,-2.13 -5.39,-2.62 -9.17,3.76 -17.89,8.41 -26.04,13.84 5.49,8.88 8.92,16.73 10.27,23.55 h 7.99 v 1.96 h -6.11 v 2.24 c 2.35,8.6 4.08,12.9 5.17,12.9 h 1.88 l 4.23,-1.12 0.94,1.12 0.94,-1.12 0.94,1.12 v 0.84 c -3.13,2.24 -5.25,5.33 -6.35,9.25 h -0.71 v 1.96 c 0,0 7.78,54.02 13.56,70.06 0.11,0.29 0.21,0.59 0.32,0.87 l 3.53,2.8 h 1.88 c 0.79,0 1.87,-1.23 3.23,-3.68 2.72,-4.87 6.58,-14.57 11.58,-29.12 4.86,-9.91 8.39,-18.6 10.58,-26.08 l -0.94,-3.08 c 4.86,-7.29 9.87,-10.94 15.05,-10.94 h 1.65 c 3.29,0 5.64,2.06 7.05,6.17 4.39,6.17 7.91,15.42 10.58,27.76 l 13.16,29.17 c 1.53,1.82 2.37,3.86 2.55,6.12 h 20.08 v -42.46 l -1.48,0.44 h -4.47 v -2.24 l 5.95,-0.55 v -39.99 -13.95 0 0 h 37.98 c 0.33,-0.79 0.66,-1.66 0.98,-2.42 0.41,-5.93 0.85,-11.21 1.33,-15.85 C 260.54,67.73 229.11,56.28 195.01,56.28 Z m -20.52,46.55 c -3.29,2.99 -8.62,5.7 -15.99,8.13 v -1.96 c 1.25,0 1.88,-1.03 1.88,-3.08 l 14.11,-3.93 v 0 z m 13.24,-35.89 -5.41,0.84 -5.17,-0.84 -4.47,1.96 -1.65,-1.96 h -7.05 V 65 65 h 23.74 v 1.96 z m 12.18,24.96 v 1.12 c 0,1.5 -3.76,3.08 -11.28,4.77 v -1.96 l 5.17,-2.8 0.94,0.84 h 0.71 l 4.46,-1.96 v 0 0 0 z m 13.16,-8.14 -0.94,1.12 v 1.12 l -2.59,-1.12 v -1.96 l 3.53,-1.96 v 0 h 2.59 v 0.84 c 0,1.31 -0.86,1.96 -2.59,1.96 z m 2.57,29.16 3.53,-1.12 0.94,1.12 v 0.84 l -1.65,2.24 h -0.94 l -1.88,-2.24 z m 8.93,37.86 -4.47,4.21 h -2.59 v -1.12 c 0,-1.68 2.35,-2.99 7.05,-3.93 v 0 0.84 z m 10.58,-17.95 -1.88,-3.08 c 0,-0.93 1.18,-1.87 3.53,-2.8 l 3.53,2.8 c -0.63,2.06 -2.35,3.08 -5.17,3.08 z"
         id="path17"
         sodipodi:nodetypes="ccccccccccccsccccccccccccsccccssccccccccccccccccccccccccccccccccccccccsccccccccccccccccccsccccccccccccsscccccccsc"
         style="display:inline" />
      <path
         d="M 256.4,261.26"
         id="path1"
         style="display:inline" />
      <polygon
         points="310.73,105.26 307.36,105.25 307.18,106.77 308.83,106.77 "
         id="polygon17"
         style="display:inline" />
    </g>
  </g>
</svg>
