/* XPM */
static char * x11_cursor_xpm[] = {
"20 20 85 1",
"       c None",
".	c #000000",
"+	c #FFFFFF",
"@	c #A2A2A2",
"#	c #DDDDDD",
"$	c #969696",
"%	c #2C2C2C",
"&	c #E1E1E1",
"*	c #8E8E8E",
"=	c #0E0E0E",
"-	c #343434",
";	c #E3E3E3",
">	c #8C8C8C",
",	c #090909",
"'	c #151515",
")	c #414141",
"!	c #E8E8E8",
"~	c #7F7F7F",
"{	c #030303",
"]	c #101010",
"^	c #1C1C1C",
"/	c #4A4A4A",
"(	c #EAEAEA",
"_	c #7D7D7D",
":	c #0B0B0B",
"<	c #171717",
"[	c #242424",
"}	c #565656",
"|	c #ECECEC",
"1	c #727272",
"2	c #050505",
"3	c #121212",
"4	c #1E1E1E",
"5	c #2B2B2B",
"6	c #626262",
"7	c #EEEEEE",
"8	c #666666",
"9	c #0C0C0C",
"0	c #191919",
"a	c #262626",
"b	c #323232",
"c	c #6B6B6B",
"d	c #646464",
"e	c #070707",
"f	c #141414",
"g	c #202020",
"h	c #2D2D2D",
"i	c #393939",
"j	c #777777",
"k	c #585858",
"l	c #020202",
"m	c #1B1B1B",
"n	c #272727",
"o	c #404040",
"p	c #7C7C7C",
"q	c #535353",
"r	c #DEDEDE",
"s	c #EFEFEF",
"t	c #4E4E4E",
"u	c #1F1F1F",
"v	c #6A6A6A",
"w	c #C2C2C2",
"x	c #222222",
"y	c #E0E0E0",
"z	c #434343",
"A	c #B1B1B1",
"B	c #828282",
"C	c #878787",
"D	c #B7B7B7",
"E	c #E5E5E5",
"F	c #767676",
"G	c #1A1A1A",
"H	c #FCFCFC",
"I	c #737373",
"J	c #BCBCBC",
"K	c #808080",
"L	c #B4B4B4",
"M	c #757575",
"N	c #818181",
"O	c #4F4F4F",
"P	c #EBEBEB",
"Q	c #BEBEBE",
"R	c #444444",
"S	c #131313",
"T	c #BDBDBD",
"T                   ",
"+@                  ",
"+#$                 ",
"+%&*                ",
"+=-;>               ",
"+,')!~              ",
"+{]^/(_             ",
"+.:<[}|1            ",
"+.2345678           ",
"+..90abc7d          ",
"+..efghij7k         ",
"+..l=mn-op7q        ",
"+...,0r++++st       ",
"+..uv]jw            ",
"+.xy7m4!z           ",
"+a;~AB3CD           ",
"+EF )|Gn7b          ",
"HI   JKfLM          ",
"N    OPQ!n          ",
"      RkS           "};
